{
	"asset":{
		"generator":"Khronos glTF Blender I/O v4.0.44",
		"version":"2.0"
	},
	"scene":0,
	"scenes":[
		{
			"name":"Scene",
			"nodes":[
				0
			]
		}
	],
	"nodes":[
		{
			"mesh":0,
			"name":"Hakod01\u3000pot arabesque (1)",
			"rotation":[
				-0.7071068286895752,
				0,
				0,
				0.7071068286895752
			],
			"scale":[
				0.029999999329447746,
				0.029999999329447746,
				0.029999999329447746
			]
		}
	],
	"materials":[
		{
			"doubleSided":true,
			"name":"\u30de\u30c6\u30ea\u30a2\u30eb",
			"pbrMetallicRoughness":{
				"baseColorFactor":[
					0.30000001192092896,
					0.022381318733096123,
					0.0026305140927433968,
					1
				],
				"metallicFactor":0,
				"roughnessFactor":0.25
			}
		}
	],
	"meshes":[
		{
			"name":"Hakod01\u3000pot arabesque (1)",
			"primitives":[
				{
					"attributes":{
						"POSITION":0,
						"NORMAL":1
					},
					"indices":2,
					"material":0
				}
			]
		}
	],
	"accessors":[
		{
			"bufferView":0,
			"componentType":5126,
			"count":40334,
			"max":[
				13.001834869384766,
				11.856941223144531,
				12.666945457458496
			],
			"min":[
				-13.00092601776123,
				0.03929191455245018,
				-12.667328834533691
			],
			"type":"VEC3"
		},
		{
			"bufferView":1,
			"componentType":5126,
			"count":40334,
			"type":"VEC3"
		},
		{
			"bufferView":2,
			"componentType":5123,
			"count":219324,
			"type":"SCALAR"
		}
	],
	"bufferViews":[
		{
			"buffer":0,
			"byteLength":484008,
			"byteOffset":0,
			"target":34962
		},
		{
			"buffer":0,
			"byteLength":484008,
			"byteOffset":484008,
			"target":34962
		},
		{
			"buffer":0,
			"byteLength":438648,
			"byteOffset":968016,
			"target":34963
		}
	],
	"buffers":[
		{
			"byteLength":1406664,
			"uri":"Hakod03.bin"
		}
	]
}
